<?xml version="1.0" encoding="UTF-8"?>
<svg width="189px" height="163px" viewBox="0 0 189 163" version="1.1" xmlns="http://www.w3.org/2000/svg" xmlns:xlink="http://www.w3.org/1999/xlink">
    <title>guarantee of game asset value</title>
    <g id="页面-1" stroke="none" stroke-width="1" fill="none" fill-rule="evenodd">
        <g id="guarantee-of-game-asset-value" transform="translate(0.000000, -0.000000)" fill-rule="nonzero">
            <path d="M36.0556867,54.58 C20.1841483,54.58 9.71184065,51.2961539 4.04107151,44.5407691 C0.726456076,40.5930768 -0.204313064,36.136923 0.0356867403,32.8946152 C0.223379123,19.5723076 7.74184065,13.9030768 14.0618406,11.4915385 C20.559533,9.01227824 28.2518406,9.00076934 36.3849176,9.01384609 L36.73261,9.01384609 C42.04261,9.01384609 46.3479946,13.3192307 46.3479946,18.6292307 C46.3479946,23.9392307 42.04261,28.2446152 36.73261,28.2446152 L36.3833791,28.2446152 C30.3433791,28.2599998 24.10261,28.2438461 20.9164561,29.4592307 C19.9818406,29.8153846 19.3833791,30.0446152 19.2787637,32.5507691 C20.6226098,33.3930768 24.9441483,35.3492307 36.0556867,35.3492307 C41.3656867,35.3492307 45.6710713,39.6546152 45.6710715,44.9646152 C45.6710717,50.2746152 41.3656869,54.58 36.0556867,54.58 Z M149.178764,57.5261537 C143.868764,57.5261537 139.563379,53.2207691 139.563379,47.9107691 L139.563379,45.7146152 C139.563379,40.1461537 139.420302,34.4807691 137.710302,31.7484615 C136.307225,29.5053846 132.304918,28.3684615 125.814918,28.3684615 C120.504918,28.3684615 116.199533,24.063077 116.199533,18.7530768 C116.199533,13.4430766 120.504918,9.13769219 125.814918,9.13769219 C158.794148,9.13769219 158.794148,32.9315383 158.794148,45.7146152 L158.794148,47.9107691 C158.794148,53.2207691 154.488764,57.5261537 149.178764,57.5261537 Z" id="形状" fill="#594BC8"></path>
            <path d="M125.814918,54.58 C120.504918,54.58 116.199533,50.2746154 116.199533,44.9646152 L116.199533,19.2307691 L48.9387637,19.2307691 L48.9387637,44.9646152 C48.9387637,50.2746152 44.6333791,54.58 39.3233791,54.58 C34.0133791,54.58 29.7079946,50.2746154 29.7079946,44.9646152 L29.7079946,9.61538457 C29.7079946,4.30538457 34.0133791,7.10542736e-15 39.3233791,7.10542736e-15 L125.814918,7.10542736e-15 C131.124918,7.10542736e-15 135.430302,4.30538457 135.430302,9.61538457 L135.430302,44.9646152 C135.430302,50.2746152 131.124918,54.58 125.814918,54.58 L125.814918,54.58 Z" id="路径" fill="#B0A7F7"></path>
            <path d="M137.594148,162.607692 L36.7010715,162.607692 C16.4641485,162.607692 0.000302170021,146.143077 0.000302170021,125.905385 L0.000302170021,35.556923 C0.000302170021,30.246923 4.3049176,25.9415385 9.61568674,25.9415385 C14.9256867,25.9415385 19.2310713,30.246923 19.2310715,35.556923 L19.2310715,125.905385 C19.2310715,135.538462 27.0679946,143.376923 36.7010715,143.376923 L137.594918,143.376923 C147.227225,143.376923 155.064918,135.539231 155.064918,125.905385 L155.064918,118.62 C155.064918,113.31 159.370302,109.004615 164.680302,109.004615 C169.990302,109.004615 174.295687,113.31 174.295687,118.62 L174.295687,125.905385 C174.295687,146.142308 157.831071,162.607692 137.594148,162.607692 Z" id="路径" fill="#594BC8"></path>
            <path d="M164.679533,86.0907691 C159.369533,86.0907691 155.064148,81.7853846 155.064148,76.4753846 L155.064148,72.05 C155.064148,62.416923 147.227225,54.58 137.594148,54.58 L32.2703022,54.58 C26.9603022,54.58 22.6549176,50.2753846 22.6549176,44.9646152 C22.6549176,39.6538459 26.9603022,35.3492307 32.2703022,35.3492307 L137.594148,35.3492307 C157.831072,35.3492307 174.294918,51.8130768 174.294918,72.05 L174.294918,76.4753846 C174.294918,81.7853846 169.990302,86.0907691 164.679533,86.0907691 Z" id="路径" fill="#594BC8"></path>
            <path d="M166.227225,124.69 L134.244148,124.69 C121.366456,124.69 110.889533,113.628462 110.889533,100.032308 L110.889533,96.4907691 C110.889533,82.8953846 121.366456,71.8346152 134.244148,71.8346152 L166.227225,71.8346152 C178.683379,71.8346152 188.076456,82.4346152 188.076456,96.4907691 L188.076456,100.032308 C188.076456,114.089231 178.683379,124.69 166.227225,124.69 L166.227225,124.69 Z M134.244148,91.0661537 C132.047225,91.0661537 130.120302,93.6007691 130.120302,96.4915385 L130.120302,100.033077 C130.120302,102.923846 132.047225,105.46 134.244148,105.46 L166.227225,105.46 C168.134918,105.46 168.845687,102.131538 168.845687,100.033077 L168.845687,96.4915385 C168.845687,94.3938461 168.134918,91.0661537 166.227225,91.0661537 L134.244148,91.0661537 Z" id="形状" fill="#594BC8"></path>
        </g>
    </g>
</svg>