<?xml version="1.0" encoding="UTF-8"?>
<svg width="185px" height="186px" viewBox="0 0 185 186" version="1.1" xmlns="http://www.w3.org/2000/svg" xmlns:xlink="http://www.w3.org/1999/xlink">
    <title>support for multiple game digital access</title>
    <g id="页面-1" stroke="none" stroke-width="1" fill="none" fill-rule="evenodd">
        <g id="support-for-multiple-game-digital-access" fill-rule="nonzero">
            <path d="M184.87,93.4546154 C184.87,88.0915385 182.275385,78.0607693 164.900769,71.1369232 C154.822308,67.1207693 141.629231,64.9092309 127.75,64.9092309 C113.870769,64.9092309 100.677692,67.1207693 90.5992309,71.1369232 C73.2238463,78.0607693 70.63,88.0923078 70.63,93.4546154 L70.63,125.01 C70.5771277,125.40993 70.5491251,125.812755 70.5461539,126.216154 C70.5461539,126.732308 70.5707693,127.292308 70.63,127.888462 L70.63,157.281538 C70.63,162.644615 73.2246154,172.675385 90.6,179.599231 C100.677692,183.615385 113.870769,185.826923 127.75,185.826923 C141.629231,185.826923 154.822308,183.615385 164.9,179.6 C182.275385,172.676154 184.87,162.644615 184.87,157.281538 L184.87,93.4546154 Z M165.639231,124.983077 C165.604615,125.253846 165.576154,125.526154 165.563846,125.803077 C163.812308,128.724615 150.633846,135.530769 127.665385,135.530769 C105.033077,135.530769 91.9146156,128.923846 89.86,125.935385 L89.86,115.465385 C90.106923,115.567692 90.3461539,115.671539 90.5984615,115.771538 C100.676923,119.787692 113.87,121.999231 127.749231,121.999231 C141.628462,121.999231 154.821538,119.787692 164.9,115.771538 C165.153077,115.670769 165.392308,115.566923 165.638462,115.465385 L165.638462,124.983077 L165.639231,124.983077 Z M127.75,84.14 C149.69,84.14 162.698462,90.3523076 165.344615,93.4546154 C162.698462,96.556923 149.69,102.769231 127.75,102.769231 C105.81,102.769231 92.8015385,96.5569232 90.1546154,93.4546154 C92.8023078,90.3523078 105.81,84.14 127.75,84.14 L127.75,84.14 Z M127.75,166.596154 C104.821538,166.596154 91.6484615,159.812308 89.8607693,156.882308 L89.8607693,148.263846 C90.0800002,148.354615 90.2915385,148.446154 90.5161539,148.536154 C100.593077,152.551538 113.786923,154.763077 127.666154,154.763077 C141.545385,154.763077 154.739231,152.551538 164.816154,148.536154 C165.097692,148.423846 165.365385,148.308462 165.639231,148.194615 L165.639231,156.883846 C163.853077,159.811539 150.68,166.596154 127.75,166.596154 Z" id="形状" fill="#594BC8"></path>
            <path d="M114.238462,28.503077 C114.224615,23.13 111.599231,13.1338461 94.27,6.22769238 C84.1915385,2.21153848 70.9984615,2.84217094e-14 57.1192309,2.84217094e-14 C43.2400002,2.84217094e-14 30.0469232,2.21153848 19.9692309,6.22769238 C2.59384629,13.1515385 0,23.183077 0,28.5461539 L0,120.356923 C0,137.43 21.7184615,148.901538 54.043077,148.901538 C59.3538461,148.901538 63.6584615,144.596154 63.6584615,139.286154 C63.6584615,133.976154 59.3538461,129.670769 54.043077,129.670769 C29.97,129.670769 20.0161539,122.415385 19.2307693,120.263846 L19.2307693,112.151538 C28.3107693,115.898462 40.1992309,118.007692 54.043077,118.007692 C59.353077,118.007692 63.6584615,113.702308 63.6584615,108.392308 C63.6584615,103.082308 59.353077,98.7769232 54.043077,98.7769232 C29.9592309,98.7769232 20.0107693,91.5184617 19.2315385,89.37 L19.2315385,82.3246154 C28.3115385,86.0723078 40.2,88.1815385 54.0438463,88.1815385 C59.3538463,88.1815385 63.6592309,83.8761539 63.6592309,78.5661539 C63.6592309,73.2561539 59.3538463,68.9507693 54.0438463,68.9507693 C29.9600002,68.9507693 20.0115387,61.6923078 19.2323078,59.5438463 L19.2323078,50.5576924 C19.4792309,50.66 19.7184617,50.7638463 19.9707693,50.8638463 C30.0484617,54.8800002 43.2423078,57.0915387 57.1207693,57.0915385 C70.9992309,57.0915383 84.193077,54.88 94.2715385,50.8638463 C94.676923,50.7023078 95.066923,50.5369232 95.4576924,50.3715385 C96.6869232,54.2661539 100.326154,57.0907693 104.626923,57.0907693 C109.936923,57.0907693 114.242308,52.7853848 114.242308,47.4753848 L114.242308,28.5461539 C114.240769,28.5315385 114.238462,28.5176924 114.238462,28.503077 L114.238462,28.503077 Z M57.1192309,37.8615385 C35.1769232,37.8615385 22.1692309,31.6484615 19.5238463,28.5461539 C22.1692309,25.4438463 35.1769232,19.2307693 57.1192309,19.2307693 C79.0615385,19.2307693 92.0692309,25.4438463 94.7146154,28.5461539 C92.0684615,31.6484615 79.0615385,37.8615385 57.1192309,37.8615385 Z" id="形状" fill="#B0A7F7"></path>
        </g>
    </g>
</svg>