<?xml version="1.0" encoding="UTF-8"?>
<svg width="185px" height="188px" viewBox="0 0 185 188" version="1.1" xmlns="http://www.w3.org/2000/svg" xmlns:xlink="http://www.w3.org/1999/xlink">
    <title>a-touzilicaihuibaoshangwu</title>
    <g id="页面-1" stroke="none" stroke-width="1" fill="none" fill-rule="evenodd">
        <g id="a-touzilicaihuibaoshangwu" fill-rule="nonzero">
            <path d="M175.550769,120.240769 C172.226154,118.483846 169.042308,118.180769 168.145385,118.13 C167.544651,118.094344 166.941881,118.116497 166.345385,118.196154 L123.025385,123.894615 C117.76,124.586923 114.053077,129.417692 114.745385,134.681538 C115.438462,139.946923 120.267692,143.647692 125.532308,142.961538 L155.507692,139.018462 L96.48,163.612308 C95.9023076,163.852308 95.536923,164.026923 95.0176924,164.374615 C94.9046154,164.445385 83.633077,171.347692 71.4638463,167.237692 C63.8623078,164.67 57.6630771,162.89 52.9176924,161.906923 L52.9176924,118.290769 C65.0807693,119.793846 85.843077,124.47 91.9353846,138.965385 C91.9792307,139.07 92.0038461,139.133846 92.0207693,139.18 C88.2884617,138.538462 82.1223078,136.527692 76.9415385,134.150769 C72.1184615,131.929231 66.4076924,134.038462 64.1853846,138.861538 C61.9638461,143.684615 64.073077,149.395385 68.8961539,151.617692 C69.136923,151.728461 74.8638463,154.355385 81.3576924,156.319231 C85.133077,157.460769 89.7315385,158.600769 94.2,158.600769 C98.5592309,158.600769 102.793846,157.516154 106.017692,154.291538 C113.77,146.536923 111.956154,136.333077 109.559231,131.266154 C98.2853848,104.921538 63.5815385,99.6599998 49.65,98.6107691 C45.613077,91.87 38.24,87.3461537 29.826923,87.3461537 L9.61538457,87.3461537 C4.30538457,87.3461537 0,91.6507691 0,96.9615385 C0,102.271538 4.30538457,106.576923 9.61538457,106.576923 L29.826923,106.576923 C31.9192307,106.576923 33.6861539,108.343846 33.6861539,110.435385 L33.6861539,163.66 C33.6861539,165.752308 31.9192309,167.52 29.826923,167.52 L9.61538457,167.52 C4.30538457,167.52 0,171.825385 0,177.135385 C0,182.445385 4.30538457,186.750769 9.61538457,186.750769 L29.826923,186.750769 C36.0607691,186.750769 41.7223076,184.263077 45.8807693,180.233077 C47.5076924,180.261538 54.1753848,181.695385 65.3084615,185.456154 C69.8900641,187.002911 74.6943542,187.787688 79.53,187.779298 C91.9084615,187.779298 101.586154,182.79 104.512308,181.096923 L170.504615,153.601538 C170.616154,153.555385 170.726154,153.506923 170.836154,153.456923 C171.372308,153.209231 174.19,151.847692 177.032308,149.334615 C181.675385,145.226154 184.130769,140.147692 184.130769,134.646154 C184.130769,128.373077 181.003077,123.122308 175.550769,120.240769 Z" id="路径" fill="#594BC8"></path>
            <path d="M122.779231,45.1776922 L103.453846,45.1776922 L103.453846,36.1723076 L129.839231,36.1723076 C135.149231,36.1723076 139.454615,31.8676922 139.454615,26.556923 C139.454615,21.2461539 135.149231,16.9415385 129.839231,16.9415385 L121.454615,16.9415385 L121.454615,9.61538457 C121.454615,4.30538457 117.149231,0 111.839231,0 C106.529231,0 102.223846,4.30538457 102.223846,9.61538457 L102.223846,16.9415385 L100.896923,16.9415385 C91.703077,16.9415385 84.223077,24.4215385 84.223077,33.6153846 L84.223077,47.7338461 C84.223077,56.9284615 91.703077,64.4084615 100.896923,64.4084615 L120.223846,64.4084615 L120.223846,73.413077 L93.8384615,73.413077 C88.5276924,73.413077 84.223077,77.7176924 84.223077,83.0284615 C84.223077,88.3392307 88.5276924,92.6438461 93.8384615,92.6438461 L102.223077,92.6438461 L102.223077,99.9707691 C102.223077,105.280769 106.528462,109.586154 111.838462,109.586154 C117.148462,109.586154 121.453846,105.280769 121.453846,99.9707691 L121.453846,92.6438461 L122.779231,92.6438461 C131.973846,92.6438461 139.454615,85.1638461 139.454615,75.97 L139.454615,61.8515385 C139.454615,52.6576924 131.973846,45.1776924 122.779231,45.1776922 Z" id="路径" fill="#B0A7F7"></path>
        </g>
    </g>
</svg>