<?xml version="1.0" encoding="UTF-8"?>
<svg width="154px" height="191px" viewBox="0 0 154 191" version="1.1" xmlns="http://www.w3.org/2000/svg" xmlns:xlink="http://www.w3.org/1999/xlink">
    <title>provide a fair open environment</title>
    <g id="页面-1" stroke="none" stroke-width="1" fill="none" fill-rule="evenodd">
        <g id="provide-a-fair-open-environment" transform="translate(0.000000, 0.000000)" fill-rule="nonzero">
            <path d="M79.6930895,190.449553 C33.2764512,190.449553 3.06067852,146.384042 1.79747441,144.508196 C0.625926529,142.769326 0,140.720348 0,138.623638 L0,37.4998999 C0,31.6819141 4.71573691,26.9661772 10.5337227,26.9661772 C53.653727,26.9661772 67.4680723,5.42934929 67.594477,5.21193327 C69.5524945,1.8673239 73.1889601,-0.131955055 77.0620722,0.00677908948 C80.9351843,0.145513234 84.4192862,2.39984957 86.1329861,5.87597917 C98.3462055,30.6521376 141.354974,27.0622448 141.783907,27.0184245 C144.746059,26.7204282 147.695961,27.6900012 149.903715,29.687241 C152.11147,31.6844809 153.370159,34.5227961 153.370159,37.4998999 L153.370159,104.915725 C153.370159,110.732868 148.653579,115.449448 142.836437,115.449448 C137.019294,115.449448 132.302714,110.732868 132.302714,104.915725 L132.302714,48.2957016 C117.424884,47.929128 91.693949,44.5777188 75.5697691,27.2805036 C65.9562725,35.5406276 48.8200125,45.5805294 21.0666025,47.6493524 L21.0666025,135.159307 C27.40369,143.327577 49.9239465,169.347557 79.6315725,169.381265 C81.2166871,169.347557 110.22993,168.243623 128.465068,133.70481 C131.18024,128.56014 137.551879,126.591598 142.698234,129.307613 C147.842904,132.023628 149.811446,138.396109 147.095431,143.540779 C122.613374,189.916125 81.4349457,190.449553 79.6930895,190.449553 Z" id="路径" fill="#594BC8"></path>
            <path d="M69.9447611,130.828692 C67.150278,130.832474 64.469562,129.722156 62.4961553,127.743566 L41.0073609,106.254772 C36.8941529,102.140721 36.8941529,95.4716106 41.0073609,91.3575598 C45.1214117,87.2435091 51.7905221,87.2435091 55.9045729,91.3575598 L69.9447611,105.397748 L99.15351,76.1889993 C103.267561,72.0757913 109.936671,72.0766341 114.050722,76.1889993 C118.164773,80.3030501 118.164773,86.9721604 114.050722,91.0862112 L77.3933672,127.743566 C75.4196961,129.721761 72.7391519,130.832007 69.9447611,130.828692 Z" id="路径" fill="#B0A7F7"></path>
        </g>
    </g>
</svg>