<?xml version="1.0" encoding="UTF-8"?>
<svg width="189px" height="155px" viewBox="0 0 189 155" version="1.1" xmlns="http://www.w3.org/2000/svg" xmlns:xlink="http://www.w3.org/1999/xlink">
    <title>game asset from conversation</title>
    <g id="页面-1" stroke="none" stroke-width="1" fill="none" fill-rule="evenodd">
        <g id="game-asset-from-conversation" fill-rule="nonzero">
            <path d="M155.769231,154.615385 C150.459231,154.615385 146.153846,150.31 146.153846,145 C146.153846,139.69 150.459231,135.384615 155.769231,135.384615 C163.191538,135.384615 169.230769,129.345385 169.230769,121.923077 L169.230769,32.6923078 C169.230769,25.2700002 163.191538,19.2307693 155.769231,19.2307693 L60,19.2307693 C54.6892309,19.2307693 50.3846154,14.9261539 50.3846154,9.61538457 C50.3846154,4.30461523 54.6892309,-2.84217094e-14 60,-2.84217094e-14 L155.769231,-2.84217094e-14 C173.796154,-2.84217094e-14 188.461538,14.6653846 188.461538,32.6923078 L188.461538,121.923077 C188.461538,139.95 173.796154,154.615385 155.769231,154.615385 L155.769231,154.615385 Z M127.941538,154.615385 L32.6923076,154.615385 C14.6653846,154.615385 -2.84217094e-14,139.95 -2.84217094e-14,121.923077 L-2.84217094e-14,32.6923078 C-2.84217094e-14,14.6653846 14.6653846,-2.84217094e-14 32.6923076,-2.84217094e-14 C38.0023076,-2.84217094e-14 42.3076922,4.30461543 42.3076924,9.61538457 C42.3076926,14.9261537 38.0023076,19.2307693 32.6923076,19.2307693 C25.27,19.2307693 19.2307691,25.2700002 19.2307693,32.6923078 L19.2307693,121.923077 C19.2307693,129.345385 25.2700002,135.384615 32.6923076,135.384615 L127.941538,135.384615 C133.251538,135.384615 137.556923,139.69 137.556923,145 C137.556923,150.31 133.252308,154.615385 127.941538,154.615385 Z" id="形状" fill="#594BC8"></path>
            <path d="M27.6923076,45.7692309 C27.6923076,39.423077 32.8846152,34.2307693 39.2307693,34.2307693 L148.076923,34.2307693 C154.423077,34.2307693 159.615385,39.423077 159.615385,45.7692309 L159.615385,58.8461539 C159.615385,65.1923078 154.423077,70.3846154 148.076923,70.3846154 L39.2307693,70.3846154 C32.8846154,70.3846154 27.6923076,65.1923078 27.6923076,58.8461539 L27.6923076,45.7692309 Z" id="路径" fill="#B0A7F7"></path>
            <path d="M150,118.461538 L130.249231,118.461538 C124.939231,118.461538 120.633846,114.156154 120.633846,108.846154 C120.633846,103.536154 124.939231,99.2307693 130.249231,99.2307693 L150,99.2307693 C155.31,99.2307693 159.615385,103.536154 159.615385,108.846154 C159.615385,114.156154 155.31,118.461538 150,118.461538 Z" id="路径" fill="#B0A7F7"></path>
        </g>
    </g>
</svg>